<svg viewBox="0 0 287 287" fill="none" xmlns="http://www.w3.org/2000/svg">
<path fill-rule="evenodd" clip-rule="evenodd" d="M143.245 173.729L112.766 143.245L143.245 112.76L173.729 143.245L143.245 173.729Z" fill="white"/>
<path fill-rule="evenodd" clip-rule="evenodd" d="M81.8229 235.151L51.3385 204.672L79.1718 176.839L109.656 207.318L81.8229 235.151Z" fill="white"/>
<path fill-rule="evenodd" clip-rule="evenodd" d="M180.5 259.318L160.411 279.411C150.969 288.854 135.521 288.854 126.083 279.411L105.99 259.318C114.302 262.146 123.896 260.26 130.495 253.661L143.245 240.911L156 253.661C162.594 260.26 172.193 262.146 180.5 259.318Z" fill="white"/>
<path fill-rule="evenodd" clip-rule="evenodd" d="M235.151 204.672L204.672 235.151L176.839 207.318L207.318 176.839L235.151 204.672Z" fill="white"/>
<path fill-rule="evenodd" clip-rule="evenodd" d="M259.318 105.99L279.411 126.083C288.854 135.521 288.854 150.969 279.411 160.406L259.318 180.5C262.146 172.188 260.26 162.594 253.661 156L240.911 143.245L253.661 130.495C260.26 123.896 262.146 114.302 259.318 105.99Z" fill="white"/>
<path fill-rule="evenodd" clip-rule="evenodd" d="M204.672 51.3386L235.151 81.823L207.318 109.656L176.839 79.172L204.672 51.3386Z" fill="white"/>
<path fill-rule="evenodd" clip-rule="evenodd" d="M105.99 27.1719L126.083 7.07812C135.521 -2.35938 150.969 -2.35938 160.411 7.07812L180.5 27.1719C172.187 24.3438 162.594 26.2292 156 32.8281L143.245 45.5781L130.495 32.8281C123.896 26.2292 114.302 24.3438 105.99 27.1719Z" fill="white"/>
<path fill-rule="evenodd" clip-rule="evenodd" d="M51.3385 81.823L81.8229 51.3386L109.656 79.172L79.1718 109.656L51.3385 81.823Z" fill="white"/>
<path fill-rule="evenodd" clip-rule="evenodd" d="M7.07812 126.083L27.1719 105.99C24.3437 114.302 26.2292 123.896 32.8281 130.495L45.5781 143.245L32.8281 156C26.2292 162.594 24.3437 172.187 27.1719 180.5L7.07812 160.406C-2.35938 150.969 -2.35938 135.521 7.07812 126.083Z" fill="white"/>
</svg>
